<svg preserveAspectRatio="none" overflow="visible" style="display: block;" width="40.4467" height="35.1515" viewBox="0 0 40.4467 35.1515" fill="none" xmlns="http://www.w3.org/2000/svg">
<g id="icon_quit_2">
<path id="Vector" d="M40.4467 17.8947L22.8183 35.1515L22.8444 26.8016H9.1294V8.90875H22.8025L22.8183 0.633742L40.4467 17.8947Z" fill="white"/>
<g id="Group">
<path id="Vector_2" d="M16.0787 35.1407H8.35938C3.75058 35.1407 6.43594e-06 31.276 6.43594e-06 26.5253L6.43594e-06 8.61537C6.43594e-06 3.86631 3.75058 0 8.35938 0L16.0787 0C17.2806 0 18.2598 1.00648 18.2598 2.24586C18.2598 3.48932 17.2814 4.49496 16.0787 4.49496H8.35938C6.15377 4.49496 4.36145 6.34429 4.36145 8.61621V26.5261C4.36145 28.7956 6.15377 30.6474 8.35938 30.6474H16.0787C17.2806 30.6474 18.2598 31.6538 18.2598 32.8965C18.259 34.1342 17.2806 35.1407 16.0787 35.1407Z" fill="white"/>
</g>
</g>
</svg>
