<svg preserveAspectRatio="none" overflow="visible" style="display: block;" width="83" height="634.511" viewBox="0 0 83 634.511" fill="none" xmlns="http://www.w3.org/2000/svg">
<g id="Group 1171279132">
<g id="Vector 31">
<path d="M77.1181 613.628L78.5 37.0009L64.3059 11.8642L17.1568 11.8642L5.88194 38.5009L5.88194 613.628L19 633.5L63 633.5L77.1181 613.628Z" fill="#2E48A3"/>
<path d="M77.1181 613.628L78.5 37.0009L64.3059 11.8642L17.1568 11.8642L5.88194 38.5009L5.88194 613.628L19 633.5L63 633.5L77.1181 613.628Z" fill="url(#paint0_linear_0_20)"/>
<path d="M77.1181 613.628L78.5 37.0009L64.3059 11.8642L17.1568 11.8642L5.88194 38.5009L5.88194 613.628L19 633.5L63 633.5L77.1181 613.628Z" stroke="#B9198B" stroke-width="2.02182"/>
</g>
<path id="Vector 30" d="M77.4329 43.68L77.4329 52L83 45.76L83 24.2667L66.8049 1.0071e-05L18.2195 6.82142e-06L7.52653e-07 21.4933L0 47.84L5.06097 52L5.06097 45.76L18.2195 30.5067L66.8049 30.5067L77.4329 43.68Z" fill="white"/>
</g>
<defs>
<linearGradient id="paint0_linear_0_20" x1="1.8476" y1="723.047" x2="382.89" y2="218.726" gradientUnits="userSpaceOnUse">
<stop stop-color="#FC22B3"/>
<stop offset="1" stop-color="#961477"/>
</linearGradient>
</defs>
</svg>
